<svg xmlns="http://www.w3.org/2000/svg" viewBox="0 0 900 520" role="img" aria-labelledby="title desc">
  <title id="title">Электронные комплектующие ЗИП</title>
  <desc id="desc">Декоративная фото-обложка карточки партнера</desc>
  <defs>
    <linearGradient id="bg" x1="0" y1="0" x2="1" y2="1">
      <stop offset="0" stop-color="#08111f"/>
      <stop offset="0.48" stop-color="#173047"/>
      <stop offset="1" stop-color="#22c55e"/>
    </linearGradient>
    <radialGradient id="glow" cx="74%" cy="24%" r="58%">
      <stop offset="0" stop-color="#bbf7d0" stop-opacity="0.46"/>
      <stop offset="1" stop-color="#bbf7d0" stop-opacity="0"/>
    </radialGradient>
    <pattern id="grid" width="42" height="42" patternUnits="userSpaceOnUse">
      <path d="M42 0H0v42" fill="none" stroke="#fff" stroke-opacity="0.09" stroke-width="1"/>
    </pattern>
  </defs>
  <rect width="900" height="520" rx="42" fill="url(#bg)"/>
  <rect width="900" height="520" rx="42" fill="url(#glow)"/>
  <rect width="900" height="520" rx="42" fill="url(#grid)"/>
  <g transform="translate(117 101)">
    <rect width="152" height="126" rx="30" fill="#fff" fill-opacity="0.12" stroke="#fff" stroke-opacity="0.28" stroke-width="3"/>
    <rect x="35" y="36" width="82" height="54" rx="12" fill="#c4ffd5" fill-opacity="0.94"/>
    <g stroke="#c4ffd5" stroke-width="8" stroke-linecap="round">
      <path d="M26 38h-16M26 63h-16M26 88h-16M142 38h-16M142 63h-16M142 88h-16"/>
    </g>
  </g>
  <g opacity="0.5" stroke="#fff" stroke-width="4" fill="none">
    <path d="M368 126h108v70h84v78h128v92h78"/>
    <path d="M368 220h82v92h116"/>
    <path d="M565 156h164v74"/>
    <circle cx="476" cy="126" r="9" fill="#fff"/>
    <circle cx="560" cy="274" r="9" fill="#fff"/>
    <circle cx="766" cy="366" r="9" fill="#fff"/>
  </g>
  <text x="118" y="328" fill="#fff" font-size="66" font-weight="800" font-family="Arial, Helvetica, sans-serif">ЗИП</text>
  <text x="122" y="376" fill="#c8ffd8" fill-opacity="0.86" font-size="24" font-weight="700" letter-spacing="5" font-family="Arial, Helvetica, sans-serif">ЭЛЕКТРОННЫЕ КОМПЛЕКТУЮЩИЕ</text>
</svg>
